<svg width="166" height="80" viewBox="0 0 166 80" fill="none" xmlns="http://www.w3.org/2000/svg">
<path d="M27.1403 38.1753H53.9122C54.523 38.1753 55.0221 37.4182 54.682 37.0032C54.4176 36.6801 54.1169 36.357 53.7847 36.0339C53.6918 35.9436 53.558 35.8945 53.41 35.8945H28.8437C28.6942 35.8945 28.5336 35.9452 28.3903 36.0371C27.8913 36.3602 27.4237 36.6833 26.9907 37.0064C26.4334 37.423 26.531 38.1753 27.1403 38.1753Z" fill="#205C9A"/>
<path d="M26.657 44.1055H51.2216C51.3712 44.1055 51.5318 44.0548 51.675 43.9629C52.1741 43.6398 52.6417 43.3167 53.0746 42.9936C53.632 42.577 53.5344 41.8247 52.9251 41.8247H26.1547C25.5439 41.8247 25.0448 42.5818 25.3849 42.9968C25.6494 43.3199 25.9501 43.643 26.2838 43.9661C26.3767 44.0564 26.5106 44.1055 26.6585 44.1055H26.657Z" fill="#205C9A"/>
<path d="M31.1014 11.2647C31.1014 11.2647 31.1029 11.2679 31.1045 11.2679C31.1958 11.4105 31.3548 11.4944 31.5469 11.4944H63.6118C63.8275 11.4944 64.0558 11.3883 64.2321 11.2156C64.2321 11.2156 64.2352 11.2125 64.2368 11.2109C64.3927 11.0557 64.4934 10.8529 64.4919 10.6676C64.4887 10.3302 64.3155 9.92793 64.0825 9.5272C63.966 9.32763 63.7472 9.21517 63.4874 9.21517H32.7214C32.4569 9.21517 32.1735 9.33396 31.9484 9.5367C31.8177 9.6555 31.6918 9.77588 31.5721 9.89942C31.4462 10.0245 31.3391 10.1433 31.2478 10.2526C30.9801 10.5789 30.925 10.9891 31.1014 11.2663V11.2647Z" fill="#003466"/>
<path d="M41.5441 17.4246H50.4392C50.5667 17.4246 50.6989 17.3976 50.8296 17.3454C51.2263 17.1854 51.6247 17.0223 52.0214 16.8591C52.9975 16.4568 53.0573 15.1437 52.1017 15.1437H41.0859C40.1271 15.1437 39.488 16.4615 40.2547 16.8607C40.568 17.0238 40.8844 17.1854 41.1993 17.347C41.3 17.3992 41.4181 17.4246 41.5441 17.4246Z" fill="#003466"/>
<path d="M49.0333 68.8477C49.0097 68.8097 48.986 68.7701 48.9609 68.7305C48.8695 68.588 48.7105 68.504 48.5185 68.504H16.4536C16.2379 68.504 16.0096 68.6101 15.8333 68.7828C15.8317 68.7844 15.8301 68.7859 15.8286 68.7875C15.6727 68.9427 15.5719 69.1455 15.5735 69.3308C15.5767 69.6935 15.775 70.1307 16.0348 70.5599C16.1214 70.7041 16.2851 70.7833 16.474 70.7833H47.4463C47.6352 70.7833 47.8383 70.7056 48.0021 70.5631C48.1753 70.411 48.339 70.2574 48.4917 70.1006C48.6932 69.901 48.8491 69.7173 48.9593 69.5605C49.1277 69.3213 49.1529 69.0457 49.0333 68.8477Z" fill="#003466"/>
<path d="M40.6215 63.5654C40.028 63.2486 39.4297 62.9381 38.8283 62.6325C38.7527 62.5944 38.663 62.5738 38.5685 62.5738H29.579C29.4829 62.5738 29.3837 62.5944 29.2861 62.634C28.5289 62.9397 27.7716 63.2502 27.0175 63.567C26.2854 63.8742 26.2398 64.8547 26.9577 64.8547H39.9965C40.716 64.8547 41.193 63.8711 40.6215 63.5654Z" fill="#003466"/>
<path d="M37.054 23.6081C38.8693 22.851 40.6121 22.1636 42.1896 21.5411C42.4981 21.4192 42.7925 21.3036 43.0838 21.1879C39.3762 19.3332 35.5159 17.518 32.2664 15.1738C30.966 14.1934 29.4782 12.8233 28.8642 11.5182C28.6375 10.8181 29.2074 9.9406 29.9159 9.24052C30.84 8.287 32.0224 7.48555 33.1543 6.73794C28.8595 7.13709 24.4812 10.0641 25.5974 14.526C26.4712 17.5877 31.3391 20.5829 37.0556 23.6097L37.054 23.6081Z" fill="#003466"/>
<path d="M51.2799 25.3805L50.8831 25.5405C49.737 26.003 48.5736 26.4671 47.3991 26.9359C46.6623 27.2305 45.9208 27.5267 45.1808 27.8229C52.5173 31.694 58.9124 35.6886 58.1063 40.0016C54.7781 48.9522 22.6109 56.433 13.8858 63.6604C8.31574 68.0114 9.50752 73.2304 15.4365 73.2636C14.6588 72.0266 12.864 70.3302 13.7142 68.6909C13.7803 68.5642 13.8716 68.4454 13.9724 68.3377C15.3405 66.8599 17.2549 65.9191 19.0654 64.8943C23.7176 62.463 28.7351 60.5718 33.5826 58.6331C41.8086 55.1089 63.6606 48.2347 62.9537 37.4547C62.5066 32.3735 56.8342 28.4153 51.2783 25.3821L51.2799 25.3805Z" fill="#003466"/>
<path d="M43.0114 56.3903C41.1961 57.1474 39.4533 57.8348 37.8758 58.4573C37.5673 58.5792 37.2729 58.6949 36.9816 58.8105C40.6892 60.6652 44.5495 62.4804 47.799 64.8246C49.0994 65.805 50.5872 67.1751 51.2012 68.4802C51.4279 69.1803 50.858 70.0578 50.1495 70.7579C49.2254 71.7114 48.043 72.5129 46.9111 73.2605C51.2059 72.8613 55.5842 69.9343 54.468 65.4724C53.5942 62.4107 48.7263 59.4155 43.0114 56.3887V56.3903Z" fill="#205C9A"/>
<path d="M28.7871 54.6195C30.0733 54.0999 31.3832 53.5757 32.7088 53.0482C33.4235 52.7631 34.1509 52.4733 34.8861 52.1787C27.5496 48.3076 21.1546 44.313 21.9591 40C23.5838 35.6332 32.0743 31.6148 41.3567 27.8071L41.341 27.7992L42.8917 27.1783L44.3212 26.6049C45.2643 26.2263 46.2073 25.851 47.1456 25.4756C48.3185 25.0083 49.4788 24.5442 50.6218 24.0833L50.8548 23.9899L51.0925 23.8948C57.4687 21.3146 63.1962 18.8137 66.1811 16.3412C71.7512 11.9902 70.5594 6.7712 64.6304 6.73794C65.4081 7.97497 67.2029 9.67134 66.3527 11.3107C66.2866 11.4374 66.1953 11.5562 66.0946 11.6639C64.7264 13.1417 62.812 14.0825 61.0015 15.1073C56.3493 17.5386 51.3318 19.4298 46.4844 21.3685C38.2584 24.8927 16.4063 31.7668 17.1132 42.5469C17.5603 47.6281 23.2327 51.5863 28.7886 54.6195H28.7871Z" fill="#205C9A"/>
<path d="M74.7897 64.6076L75.4825 60.6161H71.0428L71.9244 56.8464H80.5834L78.7886 67.0785C76.7105 68.599 73.7822 69.6444 70.7279 69.6444C65.3121 69.6444 60.4631 66.2865 60.4631 59.4757C60.4631 52.6649 65.4696 46.7094 73.3728 46.7094C75.9548 46.7094 78.3163 47.438 80.1425 48.5151L78.4422 52.6649C76.7734 51.9046 75.0731 51.3978 73.4043 51.3978C68.8702 51.3978 65.7844 54.7557 65.7844 59.3173C65.7844 63.2454 67.957 65.3362 71.2002 65.3362C72.4282 65.3362 73.5617 65.0828 74.7897 64.6076Z" fill="#205C9A"/>
<path d="M90.124 69.6444C89.7776 69.6444 89.4627 69.6444 89.1479 69.6127C84.5192 69.3593 81.8743 66.3499 81.8743 62.1684C81.8743 56.7831 85.6528 52.5065 90.5648 52.3798C90.8796 52.3798 91.163 52.3798 91.4779 52.4115C94.6266 52.6649 96.6103 54.7874 96.8622 57.6067C96.8937 57.8918 96.8937 58.1452 96.8937 58.4303C96.8622 59.1589 96.7362 59.9192 96.4214 60.7112C93.9969 61.5982 90.4388 62.3584 87.0067 62.8653C87.1012 63.0237 87.1642 63.1821 87.2901 63.3088C87.7939 64.956 89.0219 65.9064 91.0056 65.9064C91.0686 65.9064 91.1315 65.8747 91.1945 65.8747C92.2966 65.843 93.5246 65.5896 94.91 65.2095L95.1934 68.5674C93.4616 69.2326 91.7613 69.6127 90.124 69.6444ZM86.8178 59.9826C88.8015 59.6341 90.7537 59.1906 92.4225 58.6838C92.517 57.0365 91.9502 55.8327 90.5963 55.8327C88.9589 55.8327 87.3216 57.6067 86.8178 59.9826Z" fill="#205C9A"/>
<path d="M102.467 66.1281C103.884 66.1281 104.482 65.3995 104.482 64.7026C104.482 62.5485 98.9718 61.9466 98.9718 57.7334C98.9718 54.3755 102.215 52.3798 106.214 52.3798C108.166 52.3798 109.803 52.8867 111.157 53.5519L109.866 56.8464C108.796 56.3079 107.347 55.8961 106.277 55.8961C104.891 55.8961 104.451 56.6247 104.451 57.2266C104.451 59.444 109.929 60.2043 109.929 64.4175C109.929 67.8388 106.655 69.6444 102.719 69.6444C100.231 69.6444 98.0902 68.9158 96.9567 68.2189L98.2476 64.956C99.4441 65.5896 101.207 66.1281 102.467 66.1281Z" fill="#205C9A"/>
<path d="M118.366 69.6444C114.934 69.6444 113.014 67.2052 113.706 63.4038L114.934 56.3713H112.699L113.234 53.1718L115.658 53.0767L116.949 48.8319L121.515 47.9449L120.665 52.8867L124.821 52.7283L124.191 56.3713H120.035L118.902 62.8336C118.618 64.5126 119.059 65.5263 120.696 65.5263C121.169 65.5263 121.861 65.4629 122.491 65.3679L122.239 68.8525C121.106 69.3593 119.563 69.6444 118.366 69.6444Z" fill="#205C9A"/>
<path d="M141.635 59.9826C141.635 65.3362 137.794 69.6444 132.567 69.6444C127.907 69.6444 124.853 66.5716 124.853 62.0733C124.853 56.7197 128.663 52.3798 133.921 52.3798C138.581 52.3798 141.635 55.4843 141.635 59.9826ZM130.017 62.01C130.017 64.4175 131.024 65.748 132.63 65.748C134.803 65.748 136.471 63.2137 136.471 60.0459C136.471 57.6384 135.464 56.2762 133.858 56.2762C131.685 56.2762 130.017 58.8105 130.017 62.01Z" fill="#205C9A"/>
<path d="M149.633 57.7968L147.649 69.2643H142.548L145.351 53.3618L150.357 52.3798L149.885 54.9774C151.617 53.2351 153.695 52.3481 155.71 52.3798L154.702 57.0048C152.593 57.0365 151.113 57.2583 149.633 57.7968Z" fill="#205C9A"/>
<path d="M97.7076 45.6989H83.8848L87.7577 23.5242H92.9846L89.8988 41.2956H98.7467L97.7076 45.6989Z" fill="#205C9A"/>
<path d="M114.27 46.079C112.412 46.079 111.153 45.0337 110.743 43.3547C108.98 45.1604 107.185 46.079 105.453 46.079C102.903 46.079 100.478 44.1467 100.478 39.8068C100.478 34.2314 104.603 28.8144 110.019 28.8144C111.342 28.8144 112.538 29.1629 113.64 29.7965L117.576 28.8144L115.592 40.1869C115.34 41.6124 115.813 42.4361 116.789 42.4361C116.978 42.4361 117.482 42.4044 117.733 42.3727L117.23 45.2554C116.537 45.7306 115.34 46.079 114.27 46.079ZM107.595 41.8658C108.476 41.8658 109.484 41.3273 110.617 40.0602L111.845 33.0276C111.373 32.8692 110.869 32.7742 110.365 32.7742C107.311 32.7742 105.642 35.847 105.642 38.8881C105.642 41.2006 106.587 41.8658 107.595 41.8658Z" fill="#205C9A"/>
<path d="M126.802 46.0474C125.353 46.0474 123.936 45.6989 122.74 45.1287L119.119 46.079L123.244 22.5422L128.502 21.5601L126.802 31.222C128.534 29.6698 130.171 28.8144 131.903 28.8144C134.453 28.8144 136.405 30.8102 136.405 34.9917C136.405 40.8521 132.438 46.0474 126.802 46.0474ZM126.203 34.5799L124.944 41.8025C125.542 41.9926 126.14 42.1193 126.676 42.1193C129.51 42.1193 131.241 39.0782 131.241 35.8787C131.241 33.6612 130.486 32.8692 129.51 32.8692C128.534 32.8692 127.4 33.5345 126.203 34.5799Z" fill="#205C9A"/>
</svg>
