<svg width="760" height="555" viewBox="0 0 760 555" fill="none" xmlns="http://www.w3.org/2000/svg">
<g clip-path="url(#clip0_228_1235)">
<path d="M758.795 554.711L1.20469 555C0.885779 554.999 0.58025 554.881 0.355071 554.671C0.129891 554.461 0.00343323 554.177 0.00343323 553.881C0.00343323 553.585 0.129891 553.3 0.355071 553.091C0.58025 552.881 0.885779 552.763 1.20469 552.762L758.795 552.473C759.114 552.474 759.42 552.592 759.645 552.802C759.87 553.012 759.997 553.296 759.997 553.592C759.997 553.888 759.87 554.172 759.645 554.382C759.42 554.592 759.114 554.71 758.795 554.711Z" fill="#CACACA"/>
<path d="M610.777 530.973V470.437C610.778 469.211 611.303 468.037 612.236 467.17C613.168 466.304 614.433 465.817 615.752 465.815H664.97C666.289 465.817 667.553 466.304 668.486 467.17C669.419 468.037 669.943 469.211 669.945 470.437V530.973C669.943 532.198 669.419 533.372 668.486 534.239C667.553 535.105 666.289 535.593 664.97 535.594H615.752C614.433 535.593 613.168 535.105 612.236 534.239C611.303 533.372 610.778 532.198 610.777 530.973Z" fill="#E6E6E6"/>
<path d="M614.552 512.688V473.77C614.553 472.623 615.045 471.523 615.918 470.711C616.792 469.9 617.976 469.443 619.211 469.442H661.51C662.745 469.443 663.93 469.9 664.803 470.711C665.677 471.523 666.168 472.623 666.169 473.77V527.639C666.168 528.787 665.677 529.887 664.803 530.698C663.93 531.509 662.745 531.966 661.51 531.967H635.307C629.804 531.961 624.529 529.928 620.638 526.314C616.747 522.7 614.558 517.8 614.552 512.688Z" fill="white"/>
<path d="M621.401 484.629C621.402 483.508 621.882 482.433 622.736 481.64C623.589 480.847 624.747 480.401 625.954 480.4H655.296C656.504 480.4 657.662 480.845 658.516 481.638C659.37 482.432 659.849 483.507 659.849 484.629C659.849 485.751 659.37 486.827 658.516 487.62C657.662 488.413 656.504 488.858 655.296 488.858H625.954C624.747 488.857 623.589 488.411 622.736 487.618C621.882 486.825 621.402 485.75 621.401 484.629Z" fill="#E6E6E6"/>
<path d="M621.401 497.787C621.402 496.666 621.882 495.591 622.736 494.798C623.589 494.005 624.747 493.559 625.954 493.558H655.296C656.504 493.558 657.662 494.003 658.516 494.796C659.37 495.59 659.849 496.665 659.849 497.787C659.849 498.909 659.37 499.984 658.516 500.778C657.662 501.571 656.504 502.016 655.296 502.016H625.954C624.747 502.015 623.589 501.569 622.736 500.776C621.882 499.983 621.402 498.908 621.401 497.787Z" fill="#E6E6E6"/>
<path d="M621.401 510.945C621.402 509.824 621.882 508.749 622.736 507.956C623.589 507.163 624.747 506.717 625.954 506.716H655.296C656.504 506.716 657.662 507.161 658.516 507.955C659.37 508.748 659.849 509.823 659.849 510.945C659.849 512.067 659.37 513.143 658.516 513.936C657.662 514.729 656.504 515.175 655.296 515.175H625.954C624.747 515.173 623.589 514.727 622.736 513.934C621.882 513.142 621.402 512.067 621.401 510.945Z" fill="#E6E6E6"/>
<path d="M619.901 217.343C601.364 245.458 582.898 301.175 557.169 303.131C522.639 305.757 494.437 249.525 494.437 217.342C494.437 201.888 501.047 187.066 512.811 176.138C524.576 165.21 540.532 159.071 557.169 159.071C591.815 159.071 637.997 189.898 619.901 217.343Z" fill="#CCCCCC"/>
<path d="M565.77 313.339C559.857 313.339 554.002 314.421 548.539 316.523C543.076 318.625 538.113 321.705 533.932 325.589C529.751 329.473 526.434 334.083 524.172 339.158C521.909 344.232 520.744 349.671 520.744 355.163L548.063 482.514V540.186C545.184 540.819 542.619 542.337 540.782 544.492C538.946 546.648 537.947 549.315 537.945 552.064H562.228V482.514H578.417V540.005C575.319 540.452 572.494 541.912 570.453 544.124C568.412 546.335 567.289 549.151 567.287 552.064H592.583V482.514L610.795 355.163C610.795 349.671 609.631 344.232 607.368 339.158C605.105 334.083 601.789 329.473 597.608 325.589C593.427 321.705 588.463 318.625 583 316.523C577.537 314.421 571.683 313.339 565.77 313.339Z" fill="#CCCCCC"/>
<path d="M437.009 345.816C433.639 342.691 427.551 340.595 420.575 340.595C409.958 340.595 401.351 345.434 401.351 351.403C401.351 357.373 409.958 362.212 420.575 362.212C425.488 362.313 430.332 361.133 434.558 358.805L434.552 358.861L540.38 363.714L541.79 350.621L437.009 345.816Z" fill="#CCCCCC"/>
<path d="M603.977 451.762C601.526 455.554 600.807 461.549 602.491 467.836C605.054 477.407 612.188 483.997 618.424 482.555C624.66 481.114 627.637 472.187 625.074 462.617C623.993 458.164 621.591 454.083 618.139 450.835L618.198 450.827L597.717 354.261L583.699 356.151L603.977 451.762Z" fill="#CCCCCC"/>
<path d="M571.141 192.463C572.54 187.07 568.043 182.147 562.752 180.506C555.761 178.336 548.452 181.382 541.667 182.767C538.169 183.481 534.462 183.84 531.011 182.73C528.435 181.846 526.208 180.258 524.621 178.177C520.857 173.374 520.667 167.259 522.641 161.767C526.493 151.057 537.357 143.256 549.037 140.967C563.044 138.222 576.604 144.728 589.206 149.534L601.368 154.172C605.091 155.592 608.897 156.901 612.498 158.577C618.283 161.27 624.844 166.634 622.468 173.368C621.859 175.097 624.789 175.837 625.395 174.118C627.476 168.221 623.739 162.281 618.746 158.803C615.96 156.984 612.943 155.49 609.764 154.354C606.155 152.945 602.522 151.585 598.901 150.204C591.404 147.345 583.946 144.361 576.378 141.67C569.587 139.256 562.416 137.282 555.072 137.481C548.862 137.689 542.792 139.246 537.347 142.027C531.903 144.809 527.236 148.737 523.721 153.497C519.797 158.906 517.468 165.6 518.653 172.138C519.603 177.384 523.241 182.511 528.508 184.805C536.434 188.257 544.697 184.567 552.604 183.106C556.407 182.403 560.651 182.203 564.07 184.17C566.793 185.738 569.014 188.63 568.214 191.713C567.757 193.476 570.683 194.229 571.141 192.463Z" fill="#3F3D56"/>
<path d="M414.951 350.944C404.209 351.045 393.475 350.353 382.851 348.877C371.73 347.128 366.55 344.527 366.55 340.689L366.557 340.536L384.789 211.553L375.728 187.425C375.235 186.138 375.087 184.758 375.298 183.406C375.508 182.053 376.071 180.769 376.936 179.664C377.779 178.538 378.912 177.624 380.23 177.005C381.549 176.387 383.013 176.083 384.49 176.122L445.004 176.707C446.446 176.721 447.865 177.051 449.143 177.671C450.422 178.291 451.525 179.182 452.363 180.273C453.2 181.365 453.748 182.624 453.962 183.949C454.175 185.274 454.049 186.628 453.593 187.899L445.11 211.538L463.349 340.527V340.589C463.351 344.745 457.515 347.459 444.983 349.177C435.026 350.386 424.993 350.977 414.951 350.944ZM384.285 177.999C383.165 177.999 382.061 178.249 381.068 178.73C380.075 179.211 379.221 179.907 378.58 180.761C377.905 181.621 377.467 182.622 377.304 183.675C377.14 184.729 377.255 185.803 377.639 186.806L386.858 211.356L386.827 211.577L368.571 340.709L368.572 340.739C368.573 342.531 371.109 345.124 383.189 347.023C393.701 348.482 404.322 349.165 414.951 349.065C424.894 349.097 434.828 348.513 444.688 347.317C458.441 345.432 461.326 342.644 461.325 340.639L443.043 211.353L451.673 187.304C452.028 186.314 452.127 185.26 451.96 184.228C451.793 183.195 451.367 182.214 450.715 181.365C450.062 180.515 449.203 179.82 448.207 179.337C447.211 178.855 446.106 178.597 444.982 178.587L384.456 178.001C384.399 178 384.342 177.999 384.285 177.999Z" fill="#3F3D56"/>
<path opacity="0.5" d="M449.454 324.889H380.448L391.387 256.179L391.685 254.286L396.242 225.682C396.52 223.937 398.683 225.292 400.212 224.246C409.705 217.752 419.312 217.563 429.002 223.823C430.5 224.79 432.569 223.658 432.849 225.332L437.636 254.023L438.099 256.799L449.454 324.889Z" fill="#C2E0FF"/>
<path d="M440.937 334.511H388.891C387.527 334.511 386.178 334.237 384.938 333.71C383.697 333.182 382.593 332.412 381.702 331.453C380.811 330.493 380.152 329.366 379.772 328.149C379.391 326.932 379.298 325.653 379.498 324.399L394.704 228.884C394.782 228.395 394.998 227.935 395.33 227.549C395.661 227.163 396.097 226.865 396.592 226.686C397.088 226.506 397.625 226.452 398.15 226.527C398.676 226.603 399.17 226.806 399.584 227.116C408.851 234.013 418.952 233.857 429.604 226.657C430.017 226.377 430.501 226.2 431.01 226.145C431.518 226.09 432.033 226.159 432.504 226.343C432.985 226.527 433.407 226.823 433.729 227.203C434.05 227.583 434.26 228.034 434.338 228.512L450.321 324.34C450.531 325.597 450.445 326.882 450.07 328.106C449.695 329.33 449.039 330.464 448.147 331.43C447.256 332.396 446.15 333.172 444.905 333.703C443.661 334.235 442.307 334.511 440.937 334.511Z" fill="#C2E0FF"/>
<path d="M419.995 323.313H390.425V324.857H419.995V323.313Z" fill="white"/>
<path d="M419.995 314.045H390.425V315.59H419.995V314.045Z" fill="white"/>
<path d="M419.995 304.778H390.425V306.323H419.995V304.778Z" fill="white"/>
<path d="M419.995 295.511H390.425V297.055H419.995V295.511Z" fill="white"/>
<path d="M419.995 286.243H390.425V287.788H419.995V286.243Z" fill="white"/>
<path d="M439.494 261.932C437.2 264.048 434.441 265.677 431.406 266.709C428.371 267.741 425.131 268.15 421.91 267.91C418.295 267.503 414.807 266.418 411.658 264.72C408.325 263.06 405.099 261.075 401.407 260.148C398.173 259.337 394.341 259.229 391.564 261.237C391.337 261.4 391.059 261.492 390.772 261.499C390.485 261.506 390.203 261.428 389.967 261.276L390.283 259.268C391.825 258.34 393.556 257.717 395.368 257.436C397.18 257.156 399.035 257.225 400.817 257.638C408.233 259.028 413.862 264.728 421.461 265.546C424.739 265.889 428.057 265.47 431.117 264.327C434.178 263.184 436.885 261.353 438.995 258.997L439.003 258.99L439.494 261.932Z" fill="white"/>
<path d="M230.356 46.4183C229.328 67.1591 212.197 82.794 189.883 84.0127C165.754 85.3306 144.248 70.9414 149.411 46.4183C155.161 19.1093 167.954 12.8287 189.883 8.82378C215.582 4.13039 231.466 24.0082 230.356 46.4183Z" fill="#2F2E41"/>
<path d="M312 191.866C310.713 192.579 309.272 193.02 307.781 193.16C306.29 193.3 304.784 193.134 303.369 192.674C301.954 192.215 300.665 191.473 299.593 190.5C298.52 189.528 297.69 188.349 297.161 187.046L249.831 195.58L203.543 177.975L215.359 160.413L249.868 176.485L303.79 174.447C306.205 173.766 308.804 173.932 311.096 174.913C313.388 175.894 315.213 177.622 316.225 179.769C317.237 181.916 317.365 184.334 316.587 186.563C315.808 188.793 314.176 190.68 312 191.866Z" fill="#FFB6B6"/>
<path d="M166.457 156.209C166.457 156.209 163.28 160.284 173.723 164.702C182.083 168.239 226.985 190.809 239.578 192.691C239.703 194.347 240.419 195.918 241.612 197.155C242.804 198.392 244.406 199.225 246.165 199.523L253.274 175.802C250.072 171.082 246.514 172.801 244.732 174.236L230.914 164.123L192.881 141.839L168.697 153.226L166.457 156.209Z" fill="#F2F2F2"/>
<path d="M232.379 103.75L214.7 100.952L182.267 114.723L164.054 348.749L221.249 324.179C230.467 320.219 240.899 319.426 250.688 321.942C252.374 322.375 254.15 322.412 255.855 322.049C257.561 321.686 259.142 320.934 260.457 319.861C261.772 318.789 262.779 317.429 263.387 315.905C263.995 314.381 264.185 312.74 263.94 311.131L232.379 103.75Z" fill="#F2F2F2"/>
<path d="M179.354 531.629H193.235L199.84 481.897H179.354V531.629Z" fill="#FFB6B6"/>
<path d="M172.028 553.969H181.982L183.759 545.239L188.309 553.969H214.71C215.976 553.969 217.208 553.593 218.228 552.896C219.247 552.2 220 551.219 220.376 550.097C220.753 548.974 220.734 547.77 220.321 546.658C219.908 545.547 219.124 544.587 218.083 543.92L197 530.394V521.569L174.824 522.798L172.028 553.969Z" fill="#2F2E41"/>
<path d="M110.18 504.193L121.376 511.813L158.348 475.324L141.823 464.077L110.18 504.193Z" fill="#FFB6B6"/>
<path d="M90.0553 518.191L98.0847 523.655L105.072 517.589L103.189 527.129L124.485 541.624C125.505 542.319 126.739 542.692 128.004 542.69C129.27 542.688 130.501 542.31 131.519 541.611C132.537 540.913 133.288 539.93 133.662 538.807C134.036 537.684 134.014 536.48 133.599 535.369L125.199 512.884L130.814 505.765L112.144 494.582L90.0553 518.191Z" fill="#2F2E41"/>
<path d="M230.214 303.649C229.445 313.555 216.494 349.702 216.494 349.702L214.177 371.563L207.58 433.848L200.447 501.161C189.782 518.859 171.489 506.8 171.489 506.8V495.522C171.489 495.522 170.062 485.343 168.625 472.439C166.501 453.463 164.345 428.585 166.612 421.423C166.389 420.454 166.22 419.476 166.106 418.491C163.779 401.724 158.113 326.553 166.207 318.518C153.99 307.213 146.566 292.198 145.293 276.224C145.111 273.902 144.959 271.468 144.868 268.94C144.251 252.962 155.998 234.24 160.592 227.586C161.705 225.969 161.103 223.301 161.103 223.301L228.378 248.094L229.82 249.917V257.69L230.214 303.649Z" fill="#35323E"/>
<path d="M214.177 371.563L207.58 433.848L168.625 472.439L150.372 490.522C130.308 498.511 123.711 478.595 123.711 478.595L131.108 469.657C131.108 469.657 151.87 436.433 166.106 418.491C170.042 413.538 173.482 409.741 175.84 408.143C181.162 404.553 197.239 385.041 212.335 365.981L214.177 371.563Z" fill="#35323E"/>
<path d="M143.388 225.653C143.46 227.036 143.767 228.4 144.299 229.694C144.36 229.854 144.42 230.004 144.491 230.164C145.739 232.936 147.956 235.237 150.785 236.696C151.617 237.132 152.495 237.487 153.405 237.758L161.287 238.933L229.068 248.999L231.79 241.395L226.66 229.478L230.06 219.233L230.522 159.571C238.317 145.331 239.886 131.932 230.829 119.965V119.89L218.515 101.647L210.319 90.115L184.033 89.335L180.299 98.1321L172.923 102.23C156.572 111.309 150.683 127.935 151.038 145.633C156.673 165.906 152.525 188.443 148.326 212.607L144.896 218.98C143.784 221.047 143.265 223.345 143.388 225.653Z" fill="#C2E0FF"/>
<path opacity="0.2" d="M143.388 225.652C143.46 227.036 143.767 228.4 144.299 229.694L150.785 236.696C151.617 237.132 152.495 237.487 153.405 237.758L161.287 238.933L149.884 219.017L174.947 168.048L143.388 225.652Z" fill="black"/>
<path d="M205.061 106.569L180.299 98.1321L147.866 111.904L149.411 208.075C139.787 215.454 137.849 226.091 144.766 240.482L132.258 327.753C132.002 329.542 132.267 331.363 133.027 333.025C133.787 334.686 135.014 336.128 136.578 337.199C138.143 338.269 139.989 338.93 141.922 339.112C143.856 339.294 145.807 338.99 147.571 338.233L172.247 327.632C190.892 319.622 211.991 318.019 231.79 323.106L205.061 106.569Z" fill="#F2F2F2"/>
<path d="M165.151 59.5079C166.304 67.3183 170.747 74.3841 177.505 79.1528C184.263 83.9215 192.783 86.003 201.193 84.9399C209.602 83.8767 217.213 79.756 222.353 73.483C227.493 67.2101 229.743 59.2982 228.606 51.4857L228.544 51.0635C227.218 43.3561 222.682 36.4419 215.917 31.8126C209.152 27.1832 200.698 25.2097 192.381 26.3177C184.063 27.4257 176.547 31.5264 171.455 37.7352C166.363 43.9441 164.102 51.7635 165.161 59.5067L165.151 59.5079Z" fill="#FFB8B8"/>
<path d="M240.474 48.298C233.505 49.9167 226.215 49.9167 219.246 48.298C218.83 46.3653 218.071 44.5104 217 42.8092C216.863 44.6883 216.427 46.5381 215.705 48.298C209.86 52.0622 196.62 50.0097 183.813 48.298V18.2224H208.096C228.652 16.5111 243.571 29.7114 240.474 48.298Z" fill="#2F2E41"/>
<path d="M179.135 3.20406C177.289 0.813989 173.643 -0.228988 170.371 0.0418331C167.169 0.44424 164.113 1.53615 161.446 3.23045C156.883 5.84142 152.774 9.08057 149.257 12.8372C146.224 16.092 143.651 20.6022 146.028 24.3853C148.013 27.5421 152.858 28.7625 156.88 28.0603C160.902 27.3581 164.264 25.165 167.378 22.935C170.491 20.7051 173.599 18.3295 177.441 17.139L174.342 16.9119C176.449 15.1351 178.209 13.0324 179.542 10.6972C180.184 9.52375 180.484 8.21474 180.413 6.90023C180.341 5.58572 179.901 4.31147 179.135 3.20406Z" fill="#2F2E41"/>
<path d="M209.108 22.9216H183.056C176.011 22.9216 169.255 25.5211 164.274 30.1482C159.292 34.7754 156.494 41.0511 156.494 47.5948C156.495 57.1254 160.321 66.3133 167.226 73.363C174.13 80.4128 183.617 84.8179 193.831 85.7175L184.824 61.456L202.213 85.8924H209.108C185.591 67.6651 192.187 45.8999 209.108 22.9216Z" fill="#2F2E41"/>
<path d="M289.603 543.767C286.21 543.799 282.819 543.581 279.462 543.115C276.337 542.624 274.752 541.926 274.752 541.042L274.753 541.026L280.583 499.792L277.647 491.974C277.524 491.645 277.487 491.294 277.541 490.95C277.595 490.606 277.737 490.279 277.955 489.996C278.173 489.714 278.462 489.485 278.796 489.327C279.129 489.17 279.499 489.09 279.873 489.094L299.184 489.281C299.551 489.284 299.912 489.368 300.238 489.526C300.564 489.684 300.845 489.911 301.058 490.189C301.271 490.467 301.411 490.788 301.465 491.126C301.52 491.463 301.488 491.808 301.372 492.132L298.623 499.792L304.453 541.026C304.454 543.193 295.119 543.767 289.603 543.767Z" fill="#F2F2F2"/>
<path d="M288.03 537.962H278.597V538.455H288.03V537.962Z" fill="#CCCCCC"/>
<path d="M288.03 535.006H278.597V535.499H288.03V535.006Z" fill="#CCCCCC"/>
<path d="M288.03 532.05H278.597V532.543H288.03V532.05Z" fill="#CCCCCC"/>
<path d="M288.03 529.094H278.597V529.587H288.03V529.094Z" fill="#CCCCCC"/>
<path d="M288.03 526.138H278.597V526.631H288.03V526.138Z" fill="#CCCCCC"/>
<path d="M374.467 543.767C371.074 543.799 367.683 543.581 364.326 543.115C361.201 542.624 359.616 541.926 359.616 541.042L359.617 541.026L365.448 499.792L362.511 491.974C362.388 491.645 362.351 491.294 362.405 490.95C362.459 490.606 362.601 490.279 362.819 489.996C363.037 489.714 363.326 489.485 363.66 489.327C363.993 489.17 364.363 489.09 364.737 489.094L384.047 489.281C384.415 489.284 384.776 489.368 385.102 489.526C385.428 489.684 385.709 489.911 385.922 490.189C386.135 490.467 386.275 490.788 386.329 491.126C386.384 491.463 386.352 491.808 386.236 492.132L383.487 499.792L389.317 541.026C389.319 543.193 379.983 543.767 374.467 543.767Z" fill="#F2F2F2"/>
<path d="M372.894 537.962H363.461V538.455H372.894V537.962Z" fill="#CCCCCC"/>
<path d="M372.894 535.006H363.461V535.499H372.894V535.006Z" fill="#CCCCCC"/>
<path d="M372.894 532.05H363.461V532.543H372.894V532.05Z" fill="#CCCCCC"/>
<path d="M372.894 529.094H363.461V529.587H372.894V529.094Z" fill="#CCCCCC"/>
<path d="M372.894 526.138H363.461V526.631H372.894V526.138Z" fill="#CCCCCC"/>
<path d="M334.687 543.767C331.294 543.799 327.903 543.581 324.546 543.115C321.421 542.624 319.836 541.926 319.836 541.042L319.837 541.026L325.668 499.792L322.731 491.974C322.608 491.645 322.571 491.294 322.625 490.95C322.679 490.606 322.821 490.279 323.039 489.996C323.257 489.714 323.546 489.485 323.88 489.327C324.213 489.17 324.583 489.09 324.957 489.094L344.267 489.281C344.635 489.284 344.996 489.368 345.322 489.526C345.648 489.684 345.929 489.911 346.142 490.189C346.355 490.467 346.495 490.788 346.549 491.126C346.604 491.463 346.572 491.808 346.456 492.132L343.707 499.792L349.537 541.026C349.539 543.193 340.203 543.767 334.687 543.767Z" fill="#F2F2F2"/>
<path d="M333.114 537.962H323.681V538.455H333.114V537.962Z" fill="#CCCCCC"/>
<path d="M333.114 535.006H323.681V535.499H333.114V535.006Z" fill="#CCCCCC"/>
<path d="M333.114 532.05H323.681V532.543H333.114V532.05Z" fill="#CCCCCC"/>
<path d="M333.114 529.094H323.681V529.587H333.114V529.094Z" fill="#CCCCCC"/>
<path d="M333.114 526.138H323.681V526.631H333.114V526.138Z" fill="#CCCCCC"/>
<path d="M397.407 546.831H379.373V518.748H397.407C398.391 518.746 399.334 518.382 400.029 517.736C400.723 517.089 401.114 516.213 401.114 515.299C401.114 514.385 400.723 513.509 400.029 512.862C399.334 512.216 398.391 511.852 397.407 511.85H271.702C270.719 511.852 269.776 512.216 269.081 512.862C268.386 513.509 267.996 514.385 267.996 515.299C267.996 516.213 268.386 517.089 269.081 517.736C269.776 518.382 270.719 518.746 271.702 518.748H287.084V546.831H271.702C270.719 546.832 269.776 547.196 269.081 547.843C268.386 548.49 267.996 549.366 267.996 550.28C267.996 551.193 268.386 552.07 269.081 552.716C269.776 553.363 270.719 553.727 271.702 553.728H397.407C398.391 553.727 399.334 553.363 400.029 552.716C400.723 552.07 401.114 551.193 401.114 550.28C401.114 549.366 400.723 548.49 400.029 547.843C399.334 547.196 398.391 546.832 397.407 546.831ZM294.51 546.831V518.748H371.948V546.831H294.51Z" fill="#CCCCCC"/>
<path d="M235.652 322.422V261.886C235.654 260.66 236.178 259.486 237.111 258.619C238.044 257.753 239.308 257.266 240.627 257.264H289.845C291.164 257.266 292.429 257.753 293.361 258.619C294.294 259.486 294.819 260.66 294.82 261.886V322.422C294.819 323.647 294.294 324.821 293.361 325.688C292.429 326.554 291.164 327.042 289.845 327.043H240.627C239.308 327.042 238.044 326.554 237.111 325.688C236.178 324.821 235.654 323.647 235.652 322.422Z" fill="#E6E6E6"/>
<path d="M239.427 304.137V265.219C239.429 264.072 239.92 262.972 240.794 262.16C241.667 261.349 242.852 260.892 244.087 260.891H286.385C287.621 260.892 288.805 261.349 289.679 262.16C290.552 262.972 291.044 264.072 291.045 265.219V319.088C291.044 320.236 290.552 321.336 289.679 322.147C288.805 322.958 287.621 323.415 286.385 323.416H260.182C254.68 323.41 249.404 321.377 245.513 317.763C241.622 314.149 239.434 309.249 239.427 304.137Z" fill="white"/>
<path d="M246.276 276.078C246.277 274.957 246.758 273.882 247.611 273.089C248.465 272.296 249.622 271.85 250.829 271.849H280.172C281.379 271.849 282.537 272.294 283.391 273.087C284.245 273.881 284.725 274.956 284.725 276.078C284.725 277.2 284.245 278.275 283.391 279.069C282.537 279.862 281.379 280.307 280.172 280.307H250.829C249.622 280.306 248.465 279.86 247.611 279.067C246.758 278.274 246.277 277.199 246.276 276.078Z" fill="#E6E6E6"/>
<path d="M246.276 289.236C246.277 288.115 246.758 287.04 247.611 286.247C248.465 285.454 249.622 285.008 250.829 285.007H280.172C281.379 285.007 282.537 285.452 283.391 286.245C284.245 287.039 284.725 288.114 284.725 289.236C284.725 290.358 284.245 291.433 283.391 292.227C282.537 293.02 281.379 293.465 280.172 293.465H250.829C249.622 293.464 248.465 293.018 247.611 292.225C246.758 291.432 246.277 290.357 246.276 289.236Z" fill="#E6E6E6"/>
<path d="M246.276 302.394C246.277 301.273 246.758 300.198 247.611 299.405C248.465 298.612 249.622 298.166 250.829 298.165H280.172C281.379 298.165 282.537 298.61 283.391 299.403C284.245 300.196 284.725 301.272 284.725 302.394C284.725 303.516 284.245 304.591 283.391 305.385C282.537 306.178 281.379 306.623 280.172 306.623H250.829C249.622 306.622 248.465 306.176 247.611 305.383C246.758 304.59 246.277 303.515 246.276 302.394Z" fill="#E6E6E6"/>
<path d="M236.487 263.785C235.102 263.253 233.859 262.446 232.846 261.42C231.833 260.394 231.075 259.174 230.625 257.846C230.174 256.518 230.043 255.114 230.24 253.734C230.436 252.354 230.956 251.031 231.763 249.857L196.077 219.744L183.558 174.761L205.776 173.043L212.568 208.343L246.597 247.25C248.629 248.64 250.042 250.673 250.567 252.966C251.093 255.259 250.695 257.651 249.449 259.689C248.202 261.727 246.195 263.27 243.806 264.025C241.417 264.78 238.813 264.694 236.487 263.785Z" fill="#FFB6B6"/>
<path d="M180.134 134.136C180.134 134.136 174.719 134.211 177.158 144.626C179.111 152.964 186.519 199.887 192.432 210.384C191.079 211.469 190.153 212.941 189.8 214.569C189.446 216.197 189.686 217.888 190.482 219.375L215.196 210.469C217.35 205.261 213.738 203.642 211.433 203.175L211.885 186.839L208.342 145.199L184.048 134.018L180.134 134.136Z" fill="#F2F2F2"/>
</g>
<defs>
<clipPath id="clip0_228_1235">
<rect width="760" height="555" fill="white"/>
</clipPath>
</defs>
</svg>
