<svg width="500" height="227" viewBox="0 0 500 227" fill="none" xmlns="http://www.w3.org/2000/svg">
<path d="M57.9424 107.271H149.991C152.092 107.271 153.808 104.688 152.638 103.272C151.729 102.169 150.695 101.067 149.553 99.9641C149.234 99.6561 148.774 99.4885 148.265 99.4885H63.7993C63.2851 99.4885 62.7329 99.6615 62.2404 99.9749C60.5244 101.077 58.9167 102.18 57.4281 103.283C55.5119 104.704 55.8475 107.271 57.9424 107.271Z" fill="white"/>
<path d="M56.2806 127.506H140.741C141.255 127.506 141.807 127.333 142.3 127.02C144.016 125.917 145.623 124.815 147.112 123.712C149.028 122.291 148.692 119.723 146.598 119.723H54.5538C52.4536 119.723 50.7376 122.307 51.9068 123.723C52.8162 124.825 53.8501 125.928 54.9977 127.03C55.3171 127.339 55.7772 127.506 56.286 127.506H56.2806Z" fill="white"/>
<path d="M71.5617 15.4465C71.5617 15.4465 71.5671 15.4573 71.5725 15.4573C71.8864 15.9437 72.4332 16.2301 73.0936 16.2301H183.341C184.083 16.2301 184.868 15.868 185.474 15.2789C185.474 15.2789 185.485 15.2681 185.49 15.2627C186.026 14.7331 186.373 14.0413 186.367 13.4089C186.356 12.2577 185.761 10.885 184.96 9.51759C184.559 8.83661 183.807 8.45288 182.914 8.45288H77.1317C76.2223 8.45288 75.248 8.85823 74.4739 9.55002C74.0246 9.95537 73.5916 10.3661 73.1802 10.7877C72.7471 11.2146 72.379 11.62 72.0651 11.9929C71.1449 13.1063 70.9554 14.5061 71.5617 15.4519V15.4465Z" fill="#C2E0FF"/>
<path d="M107.466 36.465H138.05C138.489 36.465 138.943 36.3732 139.393 36.1948C140.757 35.6489 142.126 35.0923 143.49 34.5356C146.847 33.1628 147.052 28.6824 143.766 28.6824H105.891C102.595 28.6824 100.397 33.179 103.033 34.541C104.11 35.0977 105.198 35.6489 106.281 36.2002C106.627 36.3786 107.033 36.465 107.466 36.465Z" fill="#C2E0FF"/>
<path d="M133.216 211.932C133.135 211.802 133.054 211.667 132.967 211.532C132.653 211.045 132.107 210.759 131.446 210.759H21.1985C20.457 210.759 19.6721 211.121 19.0658 211.71C19.0604 211.716 19.055 211.721 19.0496 211.726C18.5137 212.256 18.1672 212.948 18.1726 213.58C18.1835 214.818 18.8655 216.31 19.7587 217.774C20.0564 218.266 20.6193 218.536 21.2689 218.536H127.76C128.41 218.536 129.108 218.271 129.671 217.785C130.266 217.266 130.829 216.742 131.354 216.207C132.047 215.526 132.583 214.899 132.962 214.364C133.541 213.548 133.628 212.607 133.216 211.932Z" fill="#C2E0FF"/>
<path d="M104.294 193.907C102.254 192.827 100.197 191.767 98.129 190.724C97.8691 190.594 97.5606 190.524 97.2358 190.524H66.3272C65.997 190.524 65.656 190.594 65.3204 190.73C62.7167 191.773 60.113 192.832 57.5202 193.913C55.0031 194.961 54.8461 198.307 57.3145 198.307H102.145C104.619 198.307 106.259 194.951 104.294 193.907Z" fill="#C2E0FF"/>
<path d="M92.0284 57.5647C98.2697 54.9813 104.262 52.6357 109.686 50.5117C110.747 50.0955 111.759 49.701 112.76 49.3065C100.013 42.9776 86.7399 36.7839 75.5673 28.7851C71.0961 25.4396 65.9808 20.7646 63.8697 16.3112C63.0902 13.9223 65.0497 10.9282 67.4856 8.53932C70.6631 5.28573 74.7283 2.55099 78.6203 0C63.8535 1.36197 48.7997 11.3497 52.6376 26.5746C55.6418 37.0217 72.379 47.2419 92.0339 57.5701L92.0284 57.5647Z" fill="#C2E0FF"/>
<path d="M140.941 63.6125L139.577 64.1584C135.636 65.7366 131.636 67.3201 127.598 68.9199C125.064 69.9252 122.515 70.9358 119.971 71.9465C145.196 85.1554 167.183 98.7859 164.412 113.503C152.969 144.044 42.369 169.57 12.3698 194.232C-6.78158 209.078 -2.68389 226.887 17.7017 227C15.0276 222.779 8.85675 216.991 11.7798 211.397C12.0072 210.964 12.3211 210.559 12.6675 210.192C17.3715 205.149 23.9538 201.939 30.1788 198.442C46.1744 190.146 63.4258 183.693 80.0926 177.077C108.376 165.052 183.509 141.596 181.079 104.812C179.541 87.474 160.038 73.9678 140.935 63.618L140.941 63.6125Z" fill="#C2E0FF"/>
<path d="M112.511 169.424C106.27 172.008 100.278 174.353 94.854 176.477C93.7931 176.894 92.7808 177.288 91.7794 177.683C104.527 184.011 117.8 190.205 128.973 198.204C133.444 201.549 138.559 206.224 140.67 210.678C141.45 213.067 139.49 216.061 137.054 218.45C133.877 221.703 129.812 224.438 125.92 226.989C140.686 225.627 155.74 215.639 151.902 200.415C148.898 189.967 132.161 179.747 112.511 169.419V169.424Z" fill="white"/>
<path d="M63.6045 163.382C68.0269 161.609 72.5306 159.82 77.0884 158.021C79.5459 157.048 82.0467 156.059 84.5746 155.054C59.3498 141.845 37.3619 128.214 40.128 113.497C45.7143 98.5967 74.9069 84.8852 106.822 71.8924L106.768 71.8654L112.1 69.7468L117.015 67.7903C120.258 66.4986 123.5 65.2177 126.726 63.9368C130.759 62.3424 134.748 60.7589 138.678 59.1861L139.479 58.8673L140.297 58.543C162.22 49.7388 181.912 41.2049 192.175 32.7683C211.327 17.9218 207.229 0.113497 186.844 0C189.518 4.22102 195.689 10.0094 192.765 15.6032C192.538 16.0355 192.224 16.4409 191.878 16.8084C187.174 21.8509 180.592 25.0613 174.367 28.5581C158.371 36.8542 141.119 43.3073 124.453 49.9226C96.1694 61.9479 21.0361 85.404 23.4666 122.188C25.0039 139.526 44.5072 153.032 63.6099 163.382H63.6045Z" fill="white"/>
<path d="M221.774 197.464L224.156 183.844H208.891L211.922 170.981H241.694L235.523 205.895C228.378 211.083 218.31 214.65 207.808 214.65C189.187 214.65 172.515 203.193 172.515 179.953C172.515 156.713 189.729 136.391 216.902 136.391C225.78 136.391 233.899 138.877 240.179 142.553L234.332 156.713C228.595 154.119 222.748 152.389 217.011 152.389C201.421 152.389 190.811 163.847 190.811 179.412C190.811 192.816 198.281 199.95 209.432 199.95C213.655 199.95 217.552 199.085 221.774 197.464Z" fill="white"/>
<path d="M274.497 214.651C273.306 214.651 272.224 214.65 271.141 214.542C255.227 213.678 246.133 203.409 246.133 189.141C246.133 170.765 259.124 156.172 276.013 155.74C277.096 155.74 278.07 155.74 279.153 155.848C289.979 156.713 296.799 163.955 297.665 173.575C297.773 174.548 297.773 175.413 297.773 176.386C297.665 178.872 297.232 181.466 296.15 184.168C287.813 187.195 275.58 189.789 263.779 191.519C264.104 192.059 264.321 192.6 264.754 193.032C266.486 198.653 270.708 201.896 277.529 201.896C277.745 201.896 277.962 201.787 278.178 201.787C281.967 201.679 286.19 200.815 290.953 199.518L291.927 210.975C285.973 213.245 280.127 214.542 274.497 214.651ZM263.13 181.682C269.95 180.493 276.663 178.98 282.4 177.25C282.725 171.63 280.776 167.522 276.121 167.522C270.492 167.522 264.862 173.575 263.13 181.682Z" fill="white"/>
<path d="M316.936 202.652C321.807 202.652 323.864 200.166 323.864 197.788C323.864 190.438 304.919 188.384 304.919 174.008C304.919 162.55 316.07 155.74 329.819 155.74C336.531 155.74 342.161 157.469 346.816 159.739L342.377 170.981C338.696 169.143 333.716 167.738 330.035 167.738C325.272 167.738 323.756 170.224 323.756 172.278C323.756 179.845 342.594 182.439 342.594 196.815C342.594 208.489 331.334 214.651 317.802 214.651C309.249 214.651 301.887 212.164 297.99 209.786L302.429 198.653C306.543 200.815 312.605 202.652 316.936 202.652Z" fill="white"/>
<path d="M371.602 214.65C359.802 214.65 353.198 206.327 355.58 193.356L359.802 169.36H352.115L353.956 158.442L362.292 158.118L366.731 143.634L382.428 140.607L379.505 157.469L393.796 156.929L391.631 169.36H377.34L373.443 191.41C372.468 197.139 373.984 200.598 379.614 200.598C381.237 200.598 383.619 200.382 385.784 200.058L384.918 211.948C381.021 213.678 375.716 214.65 371.602 214.65Z" fill="white"/>
<path d="M451.607 181.682C451.607 199.95 438.399 214.651 420.428 214.651C404.405 214.651 393.904 204.166 393.904 188.816C393.904 170.549 407.004 155.74 425.083 155.74C441.106 155.74 451.607 166.333 451.607 181.682ZM411.659 188.6C411.659 196.815 415.123 201.355 420.645 201.355C428.115 201.355 433.852 192.708 433.852 181.898C433.852 173.683 430.388 169.035 424.867 169.035C417.397 169.035 411.659 177.683 411.659 188.6Z" fill="white"/>
<path d="M479.106 174.224L472.285 213.353H454.747L464.382 159.091L481.596 155.74L479.972 164.603C485.926 158.658 493.071 155.632 500 155.74L496.536 171.521C489.282 171.629 484.194 172.386 479.106 174.224Z" fill="white"/>
<path d="M300.572 132.943H253.045L266.362 57.2783H284.333L273.723 117.918H304.145L300.572 132.943Z" fill="white"/>
<path d="M357.518 134.24C351.13 134.24 346.8 130.673 345.392 124.944C339.33 131.106 333.159 134.24 327.204 134.24C318.435 134.24 310.099 127.647 310.099 112.838C310.099 93.8137 324.281 75.3298 342.902 75.3298C347.449 75.3298 351.563 76.5189 355.352 78.6807L368.885 75.3298L362.064 114.135C361.198 118.999 362.822 121.81 366.178 121.81C366.828 121.81 368.56 121.702 369.426 121.593L367.694 131.43C365.312 133.051 361.198 134.24 357.518 134.24ZM334.566 119.864C337.597 119.864 341.062 118.026 344.959 113.703L349.181 89.7062C347.557 89.1657 345.825 88.8414 344.093 88.8414C333.592 88.8414 327.854 99.3264 327.854 109.703C327.854 117.594 331.102 119.864 334.566 119.864Z" fill="white"/>
<path d="M400.605 134.132C395.625 134.132 390.754 132.943 386.64 130.998L374.19 134.24L388.372 53.9275L406.452 50.5767L400.605 83.5449C406.56 78.2484 412.189 75.3299 418.144 75.3299C426.913 75.3299 433.625 82.1397 433.625 96.4079C433.625 116.405 419.984 134.132 400.605 134.132ZM398.548 95.0027L394.218 119.648C396.275 120.296 398.332 120.729 400.172 120.729C409.916 120.729 415.87 110.352 415.87 99.4345C415.87 91.8681 413.272 89.1657 409.916 89.1657C406.56 89.1657 402.662 91.4357 398.548 95.0027Z" fill="white"/>
</svg>
