<svg width="112" height="51" viewBox="0 0 112 51" fill="none" xmlns="http://www.w3.org/2000/svg">
<path d="M12.9791 24.1006H33.5981C34.0686 24.1006 34.4529 23.5202 34.191 23.202C33.9873 22.9543 33.7557 22.7066 33.4999 22.4589C33.4283 22.3897 33.3253 22.3521 33.2113 22.3521H14.2911C14.1759 22.3521 14.0522 22.3909 13.9418 22.4613C13.5575 22.709 13.1974 22.9568 12.8639 23.2045C12.4347 23.5238 12.5099 24.1006 12.9791 24.1006Z" fill="#205C9A"/>
<path d="M12.6068 28.6467H31.5259C31.6411 28.6467 31.7648 28.6079 31.8751 28.5374C32.2595 28.2897 32.6196 28.042 32.953 27.7943C33.3823 27.475 33.3071 26.8982 32.8378 26.8982H12.2201C11.7496 26.8982 11.3652 27.4786 11.6271 27.7967C11.8308 28.0445 12.0624 28.2922 12.3195 28.5399C12.391 28.6091 12.4941 28.6467 12.6081 28.6467H12.6068Z" fill="#205C9A"/>
<path d="M16.0298 3.47042C16.0298 3.47042 16.0311 3.47285 16.0323 3.47285C16.1026 3.58213 16.2251 3.64649 16.373 3.64649H41.0685C41.2346 3.64649 41.4104 3.56513 41.5462 3.43278C41.5462 3.43278 41.5487 3.43035 41.5499 3.42913C41.6699 3.31014 41.7475 3.15471 41.7463 3.01264C41.7439 2.75401 41.6105 2.44559 41.431 2.13838C41.3413 1.98538 41.1728 1.89917 40.9727 1.89917H17.2775C17.0738 1.89917 16.8556 1.99024 16.6822 2.14566C16.5815 2.23673 16.4845 2.32902 16.3924 2.42373C16.2954 2.51966 16.2129 2.61072 16.1426 2.69451C15.9365 2.94465 15.894 3.25914 16.0298 3.47163V3.47042Z" fill="#003466"/>
<path d="M24.0725 8.19262H30.9233C31.0215 8.19262 31.1233 8.17198 31.224 8.13191C31.5295 8.00927 31.8363 7.8842 32.1418 7.75913C32.8936 7.45071 32.9397 6.44409 32.2037 6.44409H23.7196C22.9812 6.44409 22.4889 7.45435 23.0794 7.76035C23.3207 7.88541 23.5644 8.00927 23.8069 8.13312C23.8845 8.17319 23.9755 8.19262 24.0725 8.19262Z" fill="#003466"/>
<path d="M29.8405 47.6148C29.8223 47.5857 29.8041 47.5553 29.7847 47.525C29.7144 47.4157 29.5919 47.3513 29.444 47.3513H4.7485C4.58238 47.3513 4.40656 47.4327 4.27076 47.565C4.26955 47.5662 4.26833 47.5675 4.26712 47.5687C4.14708 47.6877 4.06948 47.8431 4.07069 47.9852C4.07312 48.2632 4.2259 48.5984 4.42596 48.9274C4.49265 49.0379 4.61875 49.0986 4.76426 49.0986H28.6183C28.7638 49.0986 28.9202 49.0391 29.0463 48.9299C29.1797 48.8133 29.3058 48.6955 29.4234 48.5753C29.5786 48.4223 29.6986 48.2814 29.7835 48.1612C29.9133 47.9779 29.9327 47.7666 29.8405 47.6148Z" fill="#003466"/>
<path d="M23.3619 43.5653C22.9048 43.3224 22.4441 43.0845 21.9809 42.8501C21.9227 42.821 21.8536 42.8052 21.7808 42.8052H14.8573C14.7833 42.8052 14.7069 42.821 14.6318 42.8513C14.0485 43.0857 13.4653 43.3237 12.8845 43.5665C12.3207 43.8021 12.2855 44.5537 12.8384 44.5537H22.8806C23.4347 44.5537 23.8021 43.7997 23.3619 43.5653Z" fill="#003466"/>
<path d="M20.6143 12.933C22.0124 12.3526 23.3546 11.8256 24.5696 11.3484C24.8072 11.2549 25.034 11.1663 25.2583 11.0777C22.4028 9.65577 19.4297 8.26423 16.927 6.46713C15.9255 5.71551 14.7797 4.66517 14.3068 3.66463C14.1322 3.12793 14.5711 2.45523 15.1167 1.91853C15.8285 1.18754 16.7391 0.573129 17.6109 0C14.3031 0.305993 10.9311 2.54994 11.7908 5.9705C12.4637 8.31766 16.2129 10.6138 20.6155 12.9343L20.6143 12.933Z" fill="#003466"/>
<path d="M31.5708 14.2917L31.2652 14.4144C30.3825 14.769 29.4864 15.1247 28.5819 15.4841C28.0144 15.71 27.4433 15.9371 26.8734 16.1641C32.5238 19.1318 37.4491 22.1941 36.8283 25.5006C34.265 32.3623 9.49066 38.0973 2.77084 43.6379C-1.51907 46.9735 -0.601192 50.9744 3.96518 50.9999C3.36619 50.0516 1.98391 48.7511 2.63868 47.4944C2.6896 47.3972 2.75993 47.3062 2.83753 47.2236C3.89122 46.0907 5.36565 45.3694 6.76005 44.5838C10.3431 42.7199 14.2074 41.2701 17.9407 39.7839C24.2762 37.0821 41.1061 31.8123 40.5616 23.548C40.2173 19.6527 35.8485 16.6183 31.5695 14.293L31.5708 14.2917Z" fill="#003466"/>
<path d="M25.2026 38.0644C23.8045 38.6449 22.4623 39.1718 21.2473 39.6491C21.0097 39.7425 20.7829 39.8312 20.5586 39.9198C23.4141 41.3417 26.3872 42.7333 28.8899 44.5304C29.8914 45.282 31.0372 46.3323 31.5101 47.3329C31.6847 47.8696 31.2458 48.5423 30.7002 49.079C29.9884 49.81 29.0778 50.4244 28.206 50.9975C31.5138 50.6915 34.8858 48.4476 34.0261 45.027C33.3532 42.6798 29.604 40.3837 25.2026 38.0632V38.0644Z" fill="#205C9A"/>
<path d="M14.2474 36.707C15.2381 36.3087 16.2469 35.9068 17.2678 35.5024C17.8183 35.2839 18.3785 35.0617 18.9448 34.8358C13.2944 31.8682 8.36911 28.8058 8.98871 25.4994C10.24 22.1517 16.7792 19.0711 23.9282 16.152L23.9161 16.146L25.1105 15.67L26.2114 15.2304C26.9377 14.9402 27.664 14.6524 28.3867 14.3647C29.29 14.0065 30.1837 13.6507 31.064 13.2973L31.2434 13.2257L31.4265 13.1528C36.3372 11.1748 40.7484 9.25749 43.0473 7.36204C47.3373 4.02648 46.4194 0.0254994 41.853 0C42.452 0.948335 43.8343 2.2488 43.1795 3.50556C43.1286 3.6027 43.0583 3.69377 42.9807 3.77634C41.927 4.90924 40.4525 5.63051 39.0581 6.41613C35.4751 8.28002 31.6108 9.72984 27.8774 11.2161C21.542 13.9178 4.71213 19.1877 5.25656 27.4519C5.60091 31.3473 9.96964 34.3817 14.2486 36.707H14.2474Z" fill="#205C9A"/>
<path d="M49.6774 44.3642L50.2109 41.3042H46.7916L47.4706 38.4143H54.1395L52.7572 46.2584C51.1567 47.4241 48.9014 48.2255 46.5491 48.2255C42.378 48.2255 38.6434 45.6513 38.6434 40.43C38.6434 35.2087 42.4993 30.6431 48.5861 30.6431C50.5747 30.6431 52.3935 31.2016 53.8 32.0273L52.4905 35.2087C51.2052 34.6258 49.8957 34.2373 48.6104 34.2373C45.1183 34.2373 42.7418 36.8115 42.7418 40.3086C42.7418 43.3199 44.4151 44.9227 46.9129 44.9227C47.8586 44.9227 48.7316 44.7284 49.6774 44.3642Z" fill="#205C9A"/>
<path d="M61.4874 48.2254C61.2207 48.2254 60.9782 48.2254 60.7357 48.2011C57.1708 48.0068 55.1338 45.6997 55.1338 42.4941C55.1338 38.3656 58.0439 35.0871 61.8269 34.99C62.0694 34.99 62.2877 34.99 62.5302 35.0143C64.9552 35.2086 66.483 36.8357 66.677 38.997C66.7013 39.2156 66.7013 39.4099 66.7013 39.6284C66.677 40.187 66.58 40.7698 66.3375 41.377C64.4702 42.057 61.7299 42.6398 59.0866 43.0284C59.1594 43.1498 59.2079 43.2712 59.3049 43.3684C59.6929 44.6312 60.6387 45.3597 62.1664 45.3597C62.2149 45.3597 62.2634 45.3355 62.3119 45.3355C63.1607 45.3112 64.1065 45.1169 65.1735 44.8255L65.3918 47.3997C64.058 47.9097 62.7485 48.2011 61.4874 48.2254ZM58.9411 40.8184C60.4689 40.5513 61.9724 40.2113 63.2577 39.8227C63.3305 38.5599 62.894 37.6371 61.8512 37.6371C60.5902 37.6371 59.3291 38.997 58.9411 40.8184Z" fill="#205C9A"/>
<path d="M70.9936 45.5297C72.0849 45.5297 72.5456 44.9712 72.5456 44.4369C72.5456 42.7855 68.3018 42.3241 68.3018 39.0942C68.3018 36.52 70.7996 34.99 73.8794 34.99C75.3829 34.99 76.644 35.3786 77.6867 35.8885L76.6925 38.4142C75.8679 38.0013 74.7524 37.6856 73.9279 37.6856C72.8609 37.6856 72.5214 38.2442 72.5214 38.7056C72.5214 40.4056 76.741 40.9884 76.741 44.2183C76.741 46.8411 74.2189 48.2254 71.1876 48.2254C69.2718 48.2254 67.6228 47.6668 66.7498 47.1326L67.744 44.6312C68.6655 45.1169 70.0236 45.5297 70.9936 45.5297Z" fill="#205C9A"/>
<path d="M83.2389 48.2254C80.5956 48.2254 79.1163 46.3554 79.6498 43.4412L80.5956 38.0499H78.8738L79.286 35.5971L81.1533 35.5243L82.1476 32.2701L85.6639 31.5901L85.0092 35.3786L88.2102 35.2571L87.7252 38.0499H84.5241L83.6511 43.0041C83.4329 44.2912 83.7724 45.0683 85.0334 45.0683C85.3972 45.0683 85.9307 45.0198 86.4157 44.9469L86.2217 47.6183C85.3487 48.0068 84.1604 48.2254 83.2389 48.2254Z" fill="#205C9A"/>
<path d="M101.16 40.8184C101.16 44.9226 98.2015 48.2254 94.1759 48.2254C90.5868 48.2254 88.2345 45.8697 88.2345 42.4212C88.2345 38.3171 91.1688 34.99 95.2187 34.99C98.8077 34.99 101.16 37.3699 101.16 40.8184ZM92.2116 42.3727C92.2116 44.2183 92.9876 45.2383 94.2244 45.2383C95.8977 45.2383 97.1829 43.2955 97.1829 40.867C97.1829 39.0213 96.4069 37.9771 95.1701 37.9771C93.4969 37.9771 92.2116 39.9199 92.2116 42.3727Z" fill="#205C9A"/>
<path d="M107.32 39.1429L105.792 47.9341H101.863L104.022 35.743L107.877 34.9901L107.514 36.9815C108.847 35.6458 110.448 34.9658 112 34.9901L111.224 38.5358C109.599 38.56 108.459 38.73 107.32 39.1429Z" fill="#205C9A"/>
<path d="M67.3281 29.8682H56.6821L59.6649 12.8687H63.6905L61.314 26.4926H68.1284L67.3281 29.8682Z" fill="#205C9A"/>
<path d="M80.0839 30.1597C78.6531 30.1597 77.6831 29.3583 77.3678 28.0712C76.0098 29.4554 74.6275 30.1597 73.2937 30.1597C71.3295 30.1597 69.4622 28.6783 69.4622 25.3513C69.4622 21.0771 72.639 16.9243 76.8101 16.9243C77.8286 16.9243 78.7501 17.1915 79.5989 17.6772L82.6302 16.9243L81.1024 25.6427C80.9084 26.7355 81.2722 27.3669 82.0239 27.3669C82.1694 27.3669 82.5574 27.3426 82.7514 27.3184L82.3634 29.5283C81.8299 29.8926 80.9084 30.1597 80.0839 30.1597ZM74.9428 26.9298C75.6218 26.9298 76.3978 26.5169 77.2708 25.5455L78.2166 20.1542C77.8528 20.0328 77.4648 19.96 77.0768 19.96C74.7245 19.96 73.4392 22.3156 73.4392 24.647C73.4392 26.4198 74.1668 26.9298 74.9428 26.9298Z" fill="#205C9A"/>
<path d="M89.7356 30.1354C88.6201 30.1354 87.5288 29.8683 86.6073 29.4312L83.8185 30.1597L86.9953 12.1159L91.0451 11.363L89.7356 18.77C91.0694 17.58 92.3304 16.9243 93.6642 16.9243C95.6285 16.9243 97.132 18.4543 97.132 21.6599C97.132 26.1527 94.0764 30.1354 89.7356 30.1354ZM89.2748 21.3442L88.3048 26.8812C88.7656 27.027 89.2263 27.1241 89.6386 27.1241C91.8212 27.1241 93.1549 24.7927 93.1549 22.3399C93.1549 20.64 92.5729 20.0328 91.8212 20.0328C91.0694 20.0328 90.1964 20.5428 89.2748 21.3442Z" fill="#205C9A"/>
</svg>
